<?xml version="1.0" encoding="UTF-8" standalone="no"?>
<svg
   xmlns:dc="http://purl.org/dc/elements/1.1/"
   xmlns:cc="http://creativecommons.org/ns#"
   xmlns:rdf="http://www.w3.org/1999/02/22-rdf-syntax-ns#"
   xmlns:svg="http://www.w3.org/2000/svg"
   xmlns="http://www.w3.org/2000/svg"
   id="svg19094"
   viewBox="0 0 649.99999 637.795"
   height="637.79498"
   width="650"
   y="0"
   x="0"
   version="1.1">
  <metadata
     id="metadata19184">
    <rdf:RDF>
      <cc:Work
         rdf:about="">
        <dc:format>image/svg+xml</dc:format>
        <dc:type
           rdf:resource="http://purl.org/dc/dcmitype/StillImage" />
        <dc:title></dc:title>
      </cc:Work>
    </rdf:RDF>
  </metadata>
  <defs
     id="defs19096">
    <clipPath
       id="Clip_1">
      <path
         id="path19099"
         d="m 850,3.135 0,634.66 -847.5,0 0,-634.66 847.5,0 z" />
    </clipPath>
  </defs>
  <g
     transform="translate(0,-2.9101562e-6)"
     id="Layer_1">
    <g
       id="g19102"
       clip-path="url(#Clip_1)">
      <g
         transform="translate(-112.04397,-2.7327798)"
         id="g20215">
        <path
           d="m 332.93667,226.89881 c 0.46727,0.84147 0.95206,1.67485 1.44854,2.50217 l -5.15748,-3.00159 c 1.19445,0.19076 2.42395,0.36179 3.70894,0.49942 m 193.59016,2.50217 c 0.49764,-0.82732 0.98068,-1.6607 1.4497,-2.50217 1.28324,-0.13763 2.51274,-0.30866 3.70895,-0.49942 z m 131.83354,-43.73607 c -3.87367,-0.39316 -14.98474,-0.81061 -14.98474,-0.81061 0,0 9.34889,-4.7488 16.75744,-9.50672 7.41088,-4.75639 1.38895,-9.51026 -4.26909,-7.22567 -4.25273,1.71432 -19.13233,7.14472 -19.13233,7.14472 0,0 9.7852,-9.62765 15.25809,-16.79767 4.77899,-6.25821 -2.54954,-9.34076 -8.398,-4.75893 -3.36434,2.63879 -16.04894,12.85745 -16.04894,12.85745 0,0 4.58216,-7.55862 8.97449,-16.66408 4.29595,-8.90559 -5.24217,-10.07192 -8.85358,-5.7517 -3.40756,4.07937 -18.0436,24.60018 -18.0436,24.60018 0,0 -0.67169,-2.03665 -2.12432,-7.88853 -1.79665,-7.23832 -11.20569,-8.84993 -11.21504,1.73811 -0.004,14.05818 1.05311,22.73101 1.53323,25.95271 l -4.48871,3.05371 -0.62613,-0.7246 -39.28857,22.86865 c 1.46897,-2.95301 2.22654,-6.39229 2.22654,-10.38462 0,-13.20659 -8.01192,-18.70023 -16.42451,-20.83554 -7.9e-4,-3.13619 -0.15771,-6.27591 -0.46143,-9.40806 0.25583,0.74383 0.51107,1.48765 0.73186,2.24665 0,0 27.65649,-61.89892 -36.59301,-91.626395 0,0 -21.48853,-37.199557 -108.98057,-19.250744 -11.38677,1.328243 -30.97235,2.351881 -45.61248,-3.567302 0,0 -2.68095,8.353046 10.32782,15.099029 -55.91867,28.711932 -39.62266,89.684862 -36.64967,99.273552 -0.17989,2.40957 -0.27335,4.82217 -0.27451,7.23327 -8.4126,2.1338 -16.42451,7.62793 -16.42451,20.83554 0,3.99233 0.75639,7.43161 2.22537,10.38462 l -39.2874,-22.86865 -0.62789,0.7246 -4.48696,-3.05371 c 0.48013,-3.2217 1.53732,-11.89453 1.53324,-25.95271 -0.009,-10.58804 -9.4184,-8.97643 -11.21446,-1.73811 -1.45321,5.85188 -2.12491,7.88853 -2.12491,7.88853 0,0 -14.63545,-20.52081 -18.0436,-24.60018 -3.6114,-4.32022 -13.14953,-3.15389 -8.85357,5.7517 4.39233,9.10546 8.97448,16.66408 8.97448,16.66408 0,0 -12.6846,-10.21866 -16.05069,-12.85745 -5.8467,-4.58183 -13.17523,-1.49928 -8.39741,4.75893 5.47406,7.17002 15.25925,16.79767 15.25925,16.79767 0,0 -14.88135,-5.4304 -19.13175,-7.14472 -5.65862,-2.28459 -11.68055,2.46928 -4.27141,7.22567 7.41088,4.75792 16.75918,9.50672 16.75918,9.50672 0,0 -11.11107,0.41745 -14.98473,0.81061 -5.42032,0.55053 -7.04875,5.35348 0.81013,6.66149 3.48874,0.58088 17.29771,2.68837 17.29771,2.68837 0.75055,0.29955 9.0183,8.39302 28.2949,6.08717 l 0.80895,-0.64565 6.1738,4.60763 -2.32642,2.68686 136.8561,107.51425 -20.32036,107.43533 1.65121,0 c -15.54838,23.96312 -26.73947,47.29476 -26.73947,47.29476 l 8.21225,4.02877 -5.52078,10.10228 -0.002,-8.3e-4 -31.41508,57.47245 0.002,0 c -3.34389,-0.64257 -6.81512,-0.72252 -10.1006,0.23632 -3.07521,0.89814 -5.04067,1.87977 -6.30346,2.81485 l -0.005,0 c -6.31105,2.81443 -5.58386,5.93032 -5.58386,5.93032 l 27.58639,15.76036 1.94793,-2.51075 9.53229,-12.29224 0.002,0 0.0525,-0.0683 1.12846,-1.45583 c 0,0 -0.0146,-0.0115 -0.0216,-0.0165 l 38.51466,-51.12615 8.32031,-11.04445 7.78587,3.8213 26.82533,-36.71025 13.55665,-20.10843 0.37381,24.23232 2.45784,43.39704 -7.18942,-1.3675 9.37682,14.01749 -0.002,0 -0.94155,61.04633 -0.0263,0 0,1.65052 -0.003,0.18466 0.003,0 0,17.83294 33.04176,0.248 c 0,0 2.61087,-2.23651 -0.81772,-7.62141 l -0.002,0 c -0.44683,-1.38492 -1.44678,-3.15242 -3.42275,-5.38284 -2.10972,-2.38177 -5.04067,-3.99232 -8.22978,-5.07521 l 10.92242,-62.88406 2.19616,-12.64999 15.81297,0 c 0,0 4.45074,-31.55008 3.5086,-62.6655 0.0438,0.0228 0.0864,0.048 0.13026,0.0708 l -0.13142,-0.13409 c -0.17523,-5.7608 -0.53619,-11.50389 -1.14364,-17.02941 l 5.27722,0 -20.32037,-107.43533 136.8561,-107.51425 -2.32583,-2.68686 6.1738,-4.60763 0.80837,0.64565 c 19.27485,2.30585 27.54434,-5.78762 28.29489,-6.08717 0,0 13.8078,-2.10749 17.29772,-2.68837 7.85888,-1.30801 6.22928,-6.11096 0.81013,-6.66149"
           id="path19104"
           style="fill:#7f80a0;fill-opacity:1" />
        <path
           style="fill:#a3a3ac;fill-opacity:1;fill-rule:evenodd;stroke:none;stroke-width:1px;stroke-linecap:butt;stroke-linejoin:miter;stroke-opacity:1"
           d="m 437.59937,574.20632 15.72623,1.3675 16.40998,15.04248 -3.41875,6.15374 -27.34996,0 -4.78624,-6.15374 z"
           id="path20213" />
        <path
           style="fill:#a3a3ac;fill-opacity:1;fill-rule:evenodd;stroke:none;stroke-width:1px;stroke-linecap:butt;stroke-linejoin:miter;stroke-opacity:1"
           d="m 313.15705,539.33512 -15.72623,5.47 -2.73499,7.52124 28.71746,13.67498 9.57248,-16.40998 z"
           id="path20211" />
        <path
           d="m 332.93667,226.89881 c 0.46727,0.84147 0.95206,1.67485 1.44854,2.50217 l -5.15748,-3.00159 c 1.19445,0.19076 2.42395,0.36179 3.70894,0.49942 z m 193.59016,2.50217 c 0.49764,-0.82732 0.98068,-1.6607 1.4497,-2.50217 1.28324,-0.13763 2.51274,-0.30866 3.70895,-0.49942 z m 131.83354,-43.73607 c -3.87367,-0.39316 -14.98474,-0.81061 -14.98474,-0.81061 0,0 9.34889,-4.7488 16.75744,-9.50672 7.41088,-4.75639 1.38895,-9.51026 -4.26909,-7.22567 -4.25273,1.71432 -19.13233,7.14472 -19.13233,7.14472 0,0 9.7852,-9.62765 15.25809,-16.79767 4.77899,-6.25821 -2.54954,-9.34076 -8.398,-4.75893 -3.36434,2.63879 -16.04894,12.85745 -16.04894,12.85745 0,0 4.58216,-7.55862 8.97449,-16.66408 4.29595,-8.90559 -5.24217,-10.07192 -8.85358,-5.7517 -3.40756,4.07937 -18.0436,24.60018 -18.0436,24.60018 0,0 -0.67169,-2.03665 -2.12432,-7.88853 -1.79665,-7.23832 -11.20569,-8.84993 -11.21504,1.73811 -0.004,14.05818 1.05311,22.73101 1.53323,25.95271 l -4.48871,3.05371 -0.62613,-0.7246 -39.28857,22.86865 c 1.46897,-2.95301 2.22654,-6.39229 2.22654,-10.38462 0,-13.20659 -8.01192,-18.70023 -16.42451,-20.83554 -7.9e-4,-3.13619 -0.15771,-6.27591 -0.46143,-9.40806 0.25583,0.74383 0.51107,1.48765 0.73186,2.24665 0,0 27.65649,-61.89892 -36.59301,-91.626395 0,0 -21.48853,-37.199557 -108.98057,-19.250744 -11.38677,1.328243 -30.97235,2.351881 -45.61248,-3.567302 0,0 -2.68095,8.353046 10.32782,15.099029 -55.91867,28.711932 -39.62266,89.684862 -36.64967,99.273552 -0.17989,2.40957 -0.27335,4.82217 -0.27451,7.23327 -8.4126,2.1338 -16.42451,7.62793 -16.42451,20.83554 0,3.99233 0.75639,7.43161 2.22537,10.38462 l -39.2874,-22.86865 -0.62789,0.7246 -4.48696,-3.05371 c 0.48013,-3.2217 1.53732,-11.89453 1.53324,-25.95271 -0.009,-10.58804 -9.4184,-8.97643 -11.21446,-1.73811 -1.45321,5.85188 -2.12491,7.88853 -2.12491,7.88853 0,0 -14.63545,-20.52081 -18.0436,-24.60018 -3.6114,-4.32022 -13.14953,-3.15389 -8.85357,5.7517 4.39233,9.10546 8.97448,16.66408 8.97448,16.66408 0,0 -12.6846,-10.21866 -16.05069,-12.85745 -5.8467,-4.58183 -13.17523,-1.49928 -8.39741,4.75893 5.47406,7.17002 15.25925,16.79767 15.25925,16.79767 0,0 -14.88135,-5.4304 -19.13175,-7.14472 -5.65862,-2.28459 -11.68055,2.46928 -4.27141,7.22567 7.41088,4.75792 16.75918,9.50672 16.75918,9.50672 0,0 -11.11107,0.41745 -14.98473,0.81061 -5.42032,0.55053 -7.04875,5.35348 0.81013,6.66149 3.48874,0.58088 17.29771,2.68837 17.29771,2.68837 0.75055,0.29955 9.0183,8.39302 28.2949,6.08717 l 0.80895,-0.64565 6.1738,4.60763 -2.32642,2.68686 136.8561,107.51425 -20.32036,107.43533 1.65121,0 c -15.54838,23.96312 -26.73947,47.29476 -26.73947,47.29476 l 8.21225,4.02877 -5.52078,10.10228 -0.002,-8.3e-4 -31.41508,57.47243 0.002,0 c -3.34389,-0.64258 -6.81512,-0.72253 -10.1006,0.23632 -3.07521,0.89814 -5.04067,1.87977 -6.30346,2.81484 l -0.005,0 c -6.31105,2.81443 -5.58386,5.93033 -5.58386,5.93033 l 27.58639,15.76036 1.94793,-2.51075 9.53229,-12.29225 0.002,0 0.0525,-0.0683 1.12846,-1.45583 c 0,0 -0.0146,-0.0115 -0.0216,-0.0165 l 38.51466,-51.12612 8.32031,-11.04445 7.78587,3.8213 26.82533,-36.71025 13.55665,-20.10843 -5.09618,20.81357 2.45784,43.39704 7.85306,3.41875 -0.19567,12.64999 -0.002,0 -0.94155,61.0463 -0.0263,0 0,1.65053 -0.003,0.18466 0.003,0 0,17.83293 33.04176,0.248 c 0,0 2.61087,-2.23651 -0.81772,-7.6214 l -0.002,0 c -0.44683,-1.38493 -1.44678,-3.15242 -3.42275,-5.38284 -2.10972,-2.38178 -5.04067,-3.99233 -8.22978,-5.07521 l 10.92242,-62.88404 2.19616,-12.64999 15.81297,0 c 0,0 4.45074,-31.55008 3.5086,-62.6655 0.0438,0.0228 0.0864,0.048 0.13026,0.0708 l -0.13142,-0.13409 c -0.17523,-5.7608 -0.53619,-11.50389 -1.14364,-17.02941 l 5.27722,0 -20.32037,-107.43533 136.8561,-107.51425 -2.32583,-2.68686 6.1738,-4.60763 0.80837,0.64565 c 19.27485,2.30585 27.54434,-5.78762 28.29489,-6.08717 0,0 13.8078,-2.10749 17.29772,-2.68837 7.85888,-1.30801 6.22928,-6.11096 0.81013,-6.66149 z"
           id="path19106"
           style="fill-opacity:0;stroke:#666666;stroke-width:10.87285328;stroke-linecap:round;stroke-linejoin:round" />
        <path
           d="m 658.36037,185.66491 c -3.87367,-0.39367 -14.98474,-0.81111 -14.98474,-0.81111 0,0 9.34889,-4.74881 16.75744,-9.50622 7.41088,-4.75639 1.38895,-9.51026 -4.26909,-7.22567 -4.25273,1.71382 -19.13233,7.14472 -19.13233,7.14472 0,0 9.7852,-9.62816 15.25809,-16.79818 4.77899,-6.2577 -2.54954,-9.34075 -8.398,-4.75892 -3.36434,2.63878 -16.04894,12.85744 -16.04894,12.85744 0,0 4.58216,-7.55811 8.97449,-16.66357 4.29595,-8.90559 -5.24217,-10.07192 -8.85358,-5.75221 -3.40814,4.07988 -18.0436,24.60069 -18.0436,24.60069 0,0 -0.67169,-2.03665 -2.12432,-7.88853 -1.79665,-7.23832 -11.20628,-8.84993 -11.21504,1.73811 -0.004,14.05767 1.05311,22.7305 1.53323,25.95271 l -115.80505,78.80436 15.54663,17.87443 113.59311,-84.77667 0.80896,0.64515 c 19.27485,2.30635 27.54434,-5.78712 28.29489,-6.08718 0,0 13.8078,-2.10748 17.29772,-2.68786 7.85888,-1.30801 6.22928,-6.11147 0.81013,-6.66149"
           id="path19108"
           style="fill:#ffecd0" />
        <path
           d="m 658.36037,185.66491 c -3.87367,-0.39367 -14.98474,-0.81111 -14.98474,-0.81111 0,0 9.34889,-4.74881 16.75744,-9.50622 7.41088,-4.75639 1.38895,-9.51026 -4.26909,-7.22567 -4.25273,1.71382 -19.13233,7.14472 -19.13233,7.14472 0,0 9.7852,-9.62816 15.25809,-16.79818 4.77899,-6.2577 -2.54954,-9.34075 -8.398,-4.75892 -3.36434,2.63878 -16.04894,12.85744 -16.04894,12.85744 0,0 4.58216,-7.55811 8.97449,-16.66357 4.29595,-8.90559 -5.24217,-10.07192 -8.85358,-5.75221 -3.40814,4.07988 -18.0436,24.60069 -18.0436,24.60069 0,0 -0.67169,-2.03665 -2.12432,-7.88853 -1.79665,-7.23832 -11.20628,-8.84993 -11.21504,1.73811 -0.004,14.05767 1.05311,22.7305 1.53323,25.95271 l -115.80505,78.80436 15.54663,17.87443 113.59311,-84.77667 0.80896,0.64515 c 19.27485,2.30635 27.54434,-5.78712 28.29489,-6.08718 0,0 13.8078,-2.10748 17.29772,-2.68786 7.85888,-1.30801 6.22928,-6.11147 0.81013,-6.66149 z"
           id="path19110"
           style="fill-opacity:0;stroke:#666666;stroke-width:5.65388393;stroke-linecap:round;stroke-linejoin:round" />
        <path
           d="m 430.45748,271.4384 c -18.0617,-0.002 -36.12282,5.55183 -38.84174,8.06411 l 1.7727,34.47121 74.13632,0 1.7727,-34.47121 c -2.71716,-2.51076 -20.78003,-8.06411 -38.83998,-8.06411"
           id="path19112"
           style="fill:#ffc46b" />
        <path
           d="m 430.45748,271.4384 c -18.0617,-0.002 -36.12282,5.55183 -38.84174,8.06411 l 1.7727,34.47121 74.13632,0 1.7727,-34.47121 c -2.71716,-2.51076 -20.78003,-8.06411 -38.83998,-8.06411 z"
           id="path19114"
           style="fill-opacity:0;stroke:#666666;stroke-width:5.43642664;stroke-linecap:round;stroke-linejoin:round" />
        <path
           d="m 451.27899,273.20282 141.42015,-82.32004 14.60215,16.868 -139.77594,109.80947"
           id="path19116"
           style="fill:#ffc46b" />
        <path
           d="m 451.27899,273.20282 141.42015,-82.32004 14.60215,16.868 -139.77594,109.80947"
           id="path19118"
           style="fill-opacity:0;stroke:#666666;stroke-width:5.43642664;stroke-linecap:round;stroke-linejoin:round" />
        <path
           d="M 378.90427,267.35853 263.09922,188.55417 c 0.48013,-3.22221 1.53732,-11.89504 1.53324,-25.95271 -0.009,-10.58804 -9.4184,-8.97643 -11.21446,-1.73811 -1.45321,5.85188 -2.12491,7.88853 -2.12491,7.88853 0,0 -14.63545,-20.52081 -18.0436,-24.60069 -3.6114,-4.31971 -13.14953,-3.15338 -8.85357,5.75221 4.39233,9.10546 8.97448,16.66357 8.97448,16.66357 0,0 -12.6846,-10.21866 -16.05069,-12.85744 -5.8467,-4.58183 -13.17523,-1.49878 -8.39741,4.75892 5.47406,7.17002 15.25925,16.79818 15.25925,16.79818 0,0 -14.88135,-5.4309 -19.13175,-7.14472 -5.65862,-2.28459 -11.68055,2.46928 -4.27141,7.22567 7.41088,4.75741 16.75918,9.50622 16.75918,9.50622 0,0 -11.11107,0.41744 -14.98473,0.81111 -5.42032,0.55002 -7.04875,5.35348 0.81013,6.66149 3.48874,0.58038 17.29771,2.68786 17.29771,2.68786 0.75055,0.30006 9.0183,8.39353 28.2949,6.08718 l 0.80895,-0.64515 113.59311,84.77667 z"
           id="path19120"
           style="fill:#ffecd0" />
        <path
           d="M 378.90427,267.35853 263.09922,188.55417 c 0.48013,-3.22221 1.53732,-11.89504 1.53324,-25.95271 -0.009,-10.58804 -9.4184,-8.97643 -11.21446,-1.73811 -1.45321,5.85188 -2.12491,7.88853 -2.12491,7.88853 0,0 -14.63545,-20.52081 -18.0436,-24.60069 -3.6114,-4.31971 -13.14953,-3.15338 -8.85357,5.75221 4.39233,9.10546 8.97448,16.66357 8.97448,16.66357 0,0 -12.6846,-10.21866 -16.05069,-12.85744 -5.8467,-4.58183 -13.17523,-1.49878 -8.39741,4.75892 5.47406,7.17002 15.25925,16.79818 15.25925,16.79818 0,0 -14.88135,-5.4309 -19.13175,-7.14472 -5.65862,-2.28459 -11.68055,2.46928 -4.27141,7.22567 7.41088,4.75741 16.75918,9.50622 16.75918,9.50622 0,0 -11.11107,0.41744 -14.98473,0.81111 -5.42032,0.55002 -7.04875,5.35348 0.81013,6.66149 3.48874,0.58038 17.29771,2.68786 17.29771,2.68786 0.75055,0.30006 9.0183,8.39353 28.2949,6.08718 l 0.80895,-0.64515 113.59311,84.77667 15.54663,-17.87443 z"
           id="path19122"
           style="fill-opacity:0;stroke:#666666;stroke-width:5.65388393;stroke-linecap:round;stroke-linejoin:round" />
        <path
           d="m 409.6348,273.20282 -141.42015,-82.32004 -14.60215,16.868 139.77594,109.80947"
           id="path19124"
           style="fill:#ffc46b" />
        <path
           d="m 409.6348,273.20282 -141.42015,-82.32004 -14.60215,16.868 139.77594,109.80947"
           id="path19126"
           style="fill-opacity:0;stroke:#666666;stroke-width:5.43642664;stroke-linecap:round;stroke-linejoin:round" />
        <path
           d="m 430.45573,303.01024 13.71142,-22.9992 -27.49586,0 z"
           id="path19128"
           style="fill:#def3ff" />
        <path
           d="m 430.45573,303.01024 13.71142,-22.9992 -27.49586,0 13.78444,22.9992 z"
           id="path19130"
           style="fill-opacity:0;stroke:#666666;stroke-width:5.43642664;stroke-linecap:round;stroke-linejoin:round" />
        <path
           d="m 440.49383,270.1061 -1.85155,-16.95199 -8.18597,-4.61269 -8.1848,4.61269 -1.8533,16.95199 -6.61595,2.71874 c 0,0 0.32416,12.59433 16.65405,12.59433 16.33106,0 16.65639,-12.59433 16.65639,-12.59433 z"
           id="path19132"
           style="fill:#ffecd0" />
        <path
           d="m 440.49383,270.1061 -1.85155,-16.95199 -8.18597,-4.61269 -8.1848,4.61269 -1.8533,16.95199 -6.61595,2.71874 c 0,0 0.32416,12.59433 16.65405,12.59433 16.33106,0 16.65639,-12.59433 16.65639,-12.59433 l -6.61887,-2.71874 z"
           id="path19134"
           style="fill-opacity:0;stroke:#666666;stroke-width:5.43642664;stroke-linecap:round;stroke-linejoin:round" />
        <path
           d="m 340.77277,181.91292 c 0,0 -35.49667,-6.34523 -35.49667,21.45439 0,16.35541 12.22201,23.77944 37.34239,24.08961"
           id="path19136"
           style="fill:#ffecd0" />
        <path
           d="m 340.77277,181.91292 c 0,0 -35.49667,-6.34523 -35.49667,21.45439 0,16.35541 12.22201,23.77944 37.34239,24.08961"
           id="path19138"
           style="fill-opacity:0;stroke:#666666;stroke-width:5.43642664;stroke-linecap:round;stroke-linejoin:round" />
        <path
           d="m 318.80237,204.87265 c 0,0 4.65341,-1.86207 9.08838,-1.83829"
           id="path19140"
           style="fill:#ffecd0" />
        <path
           d="m 318.80237,204.87265 c 0,0 4.65341,-1.86207 9.08838,-1.83829"
           id="path19142"
           style="fill-opacity:0;stroke:#666666;stroke-width:5.43642664;stroke-linecap:round;stroke-linejoin:round" />
        <path
           d="m 520.13984,181.91292 c 0,0 35.49727,-6.34523 35.49727,21.45439 0,16.35541 -12.21909,23.77944 -37.34064,24.08961"
           id="path19144"
           style="fill:#ffecd0" />
        <path
           d="m 520.13984,181.91292 c 0,0 35.49727,-6.34523 35.49727,21.45439 0,16.35541 -12.21909,23.77944 -37.34064,24.08961"
           id="path19146"
           style="fill-opacity:0;stroke:#666666;stroke-width:5.43642664;stroke-linecap:round;stroke-linejoin:round" />
        <path
           d="m 542.11142,204.87265 c 0,0 -4.654,-1.86207 -9.08547,-1.83829"
           id="path19148"
           style="fill:#ffecd0" />
        <path
           d="m 542.11142,204.87265 c 0,0 -4.654,-1.86207 -9.08547,-1.83829"
           id="path19150"
           style="fill-opacity:0;stroke:#666666;stroke-width:5.43642664;stroke-linecap:round;stroke-linejoin:round" />
        <path
           d="m 430.45631,275.76672 c -152.30343,0 -137.56985,-193.755799 0,-193.755799 137.56927,0 152.30635,193.755799 0,193.755799"
           id="path19152"
           style="fill:#ffecd0" />
        <path
           d="m 430.45631,275.76672 c -152.30343,0 -137.56985,-193.755799 0,-193.755799 137.56927,0 152.30635,193.755799 0,193.755799 z"
           id="path19154"
           style="fill-opacity:0;stroke:#666666;stroke-width:5.43642664;stroke-linecap:round;stroke-linejoin:round" />
        <path
           d="m 426.3677,216.64473 c 0,0 -1.57294,6.12613 4.61721,5.78711"
           id="path19156"
           style="fill-opacity:0;stroke:#666666;stroke-width:5.43642664;stroke-linecap:round;stroke-linejoin:round" />
        <path
           d="m 370.74049,107.77895 c 0,0 19.71291,28.46246 67.16993,37.31745 l -4.38065,-30.35997 c 0,0 14.52447,23.05739 59.06106,29.38238 l -4.30296,-19.26238 c 0,0 41.79254,18.17195 51.19516,50.51393 0,0 27.65649,-61.89892 -36.59301,-91.626395 0,0 -22.63334,-39.214957 -116.08715,-17.709979 -95.77263,22.038805 -64.4072,110.558354 -64.4072,110.558354 0,0 5.99856,-47.30842 48.34482,-68.81339"
           id="path19158"
           style="fill:#997b5c" />
        <path
           d="m 370.74049,107.77895 c 0,0 19.71291,28.46246 67.16993,37.31745 l -4.38065,-30.35997 c 0,0 14.52447,23.05739 59.06106,29.38238 l -4.30296,-19.26238 c 0,0 41.79254,18.17195 51.19516,50.51393 0,0 27.65649,-61.89892 -36.59301,-91.626395 0,0 -22.63334,-39.214957 -116.08715,-17.709979 -95.77263,22.038805 -64.4072,110.558354 -64.4072,110.558354 0,0 5.99856,-47.30842 48.34482,-68.81339 z"
           id="path19160"
           style="fill-opacity:0;stroke:#666666;stroke-width:5.43642664;stroke-linecap:round;stroke-linejoin:round" />
        <path
           d="m 403.19934,63.100704 c 0,0 -32.99913,6.680213 -54.90237,-2.174785 0,0 -3.47531,10.800563 16.60266,17.758057"
           id="path19162"
           style="fill:#997b5c" />
        <path
           d="m 403.19934,63.100704 c 0,0 -32.99913,6.680213 -54.90237,-2.174785 0,0 -3.47531,10.800563 16.60266,17.758057"
           id="path19164"
           style="fill-opacity:0;stroke:#666666;stroke-width:5.43642664;stroke-linecap:round;stroke-linejoin:round" />
        <path
           d="m 374.86998,153.77075 c 3.65171,-7.58999 14.35976,-7.90522 19.95648,-1.68649"
           id="path19166"
           style="fill-opacity:0;stroke:#666666;stroke-width:5.43642664;stroke-linecap:round;stroke-linejoin:round" />
        <path
           d="m 486.0438,153.77075 c -3.65229,-7.58999 -14.36034,-7.90522 -19.95705,-1.68649"
           id="path19168"
           style="fill-opacity:0;stroke:#666666;stroke-width:5.43642664;stroke-linecap:round;stroke-linejoin:round" />
        <path
           d="m 376.52996,196.173 c 0,0 -0.4848,-11.38498 9.24958,-11.38498 9.73322,0 9.73322,10.11999 9.73322,10.11999"
           id="path19170"
           style="fill-opacity:0;stroke:#666666;stroke-width:5.43642664;stroke-linecap:round;stroke-linejoin:round" />
        <path
           d="m 484.38325,196.173 c 0,0 0.48479,-11.38498 -9.24901,-11.38498 -9.7338,0 -9.7338,10.11999 -9.7338,10.11999"
           id="path19172"
           style="fill-opacity:0;stroke:#666666;stroke-width:5.43642664;stroke-linecap:round;stroke-linejoin:round" />
        <path
           d="m 414.01078,235.38796 c 0,0 8.27358,26.56498 16.06237,26.56498 0.13317,0 0.25583,-0.0273 0.38258,-0.0415 0.12733,0.0142 0.24999,0.0415 0.38432,0.0415 7.78879,0 16.06238,-26.56498 16.06238,-26.56498 z"
           id="path19174"
           style="fill:#f09a96" />
        <path
           d="m 414.01078,235.38796 c 0,0 8.27358,26.56498 16.06237,26.56498 0.13317,0 0.25583,-0.0273 0.38258,-0.0415 0.12733,0.0142 0.24999,0.0415 0.38432,0.0415 7.78879,0 16.06238,-26.56498 16.06238,-26.56498 l -32.89165,0 z"
           id="path19176"
           style="fill-opacity:0;stroke:#666666;stroke-width:5.43642664;stroke-linecap:round;stroke-linejoin:round" />
        <path
           d="m 391.57018,309.42985 -21.42253,113.27051 124.9349,14.27578 -25.74128,-127.54629"
           id="path19178"
           style="fill:#ffc46b" />
        <path
           d="m 391.57018,309.42985 -21.42253,113.27051 126.73729,15.3257 -27.54367,-128.59621"
           id="path19180"
           style="fill-opacity:0;stroke:#666666;stroke-width:8;stroke-linecap:round;stroke-linejoin:round;stroke-miterlimit:4;stroke-dasharray:none" />
        <path
           style="fill:#ffecd0;fill-opacity:1;fill-rule:evenodd;stroke:#666666;stroke-width:9;stroke-linecap:round;stroke-linejoin:round;stroke-miterlimit:4;stroke-dasharray:none;stroke-opacity:1"
           d="m 351.447,472.32772 31.45245,16.40998 -49.22993,61.53741 -18.46122,-10.93999 z"
           id="path20207" />
        <path
           id="path20209"
           d="m 436.23187,503.78018 32.13621,-0.68375 -12.99124,71.1099 -21.87996,-2.05125 z"
           style="fill:#ffecd0;fill-opacity:1;fill-rule:evenodd;stroke:#666666;stroke-width:9;stroke-linecap:round;stroke-linejoin:round;stroke-miterlimit:4;stroke-dasharray:none;stroke-opacity:1" />
      </g>
    </g>
  </g>
</svg>
