<svg width="500.99999999999994" height="823" xmlns="http://www.w3.org/2000/svg">

 <g id="imagebot_1">
  <title/>
  <path id="imagebot_67" stroke-linejoin="round" d="M-1064,429.35999C-1064,495.082 -1124.88904,548.35999 -1200,548.35999S-1336,495.082 -1336,429.35999S-1275.11096,310.35999 -1200,310.35999S-1064,363.638 -1064,429.35999z" fill-rule="evenodd" transform="matrix(0.274117, 0.0637171, -0.142815, 0.278784, 825.707, 554.595)" stroke="#000" stroke-linecap="round" stroke-width="30.071" fill="#efd6bd"/>
  <path stroke-linejoin="round" d="M-241.752,627.53003C-248.85001,621.52301 -250.7,608.00598 -246.539,598.15399C-241.661,586.60699 -230.733,583.60999 -222.77699,590.42297C-213.496,598.37201 -211.09399,616.11298 -216.604,629.013C-223.005,643.99701 -237.23801,647.86298 -247.575,638.91602C-259.534,628.56598 -262.60999,605.62903 -255.431,588.98798C-247.158,569.81097 -228.884,564.89203 -215.63901,576.46301C-200.43201,589.74902 -196.54201,619.005 -205.763,640.19C-207.53,644.25098 -209.718,647.93701 -212.228,651.112" stroke="#000" stroke-linecap="round" stroke-width="6" fill="#7f3f00" transform="rotate(347.956, 141.485, 274.237) matrix(0.513003, -0.00198498, -0.00199809, 0.525329, 260.709, -45.0818)" id="imagebot_22"/>
  <path stroke-linejoin="round" d="M-221.30299,619.02698C-234.74899,611.01202 -238.252,592.97803 -230.37,579.83502C-221.13,564.42999 -200.429,560.42999 -185.35899,569.52002C-167.778,580.12598 -163.22701,603.79498 -173.66499,621.005C-185.78999,640.99701 -212.75101,646.15503 -232.33299,634.21802C-254.987,620.409 -260.814,589.80798 -247.214,567.60498C-231.543,542.02002 -196.927,535.45697 -171.838,550.896C-143.03101,568.62097 -135.66299,607.65302 -153.129,635.91803C-156.47701,641.33502 -160.62,646.25403 -165.37601,650.48798" stroke="#000" stroke-linecap="round" stroke-width="13.435" fill="#7f3f00" transform="matrix(0.512579, 0, 0, 0.525756, 417.798, -172.314)" id="imagebot_19"/>
  <path stroke-linejoin="round" d="M-213.36,635.21002C-229.37199,625.66504 -233.54401,604.18903 -224.157,588.53705C-213.15401,570.19104 -188.50101,565.42804 -170.55499,576.25299C-149.618,588.883 -144.19901,617.07001 -156.629,637.565C-171.06799,661.37305 -203.175,667.51501 -226.495,653.30005C-253.47301,636.85504 -260.41199,600.41302 -244.217,573.97302C-225.554,543.50403 -184.33099,535.68903 -154.453,554.07404C-120.148,575.18304 -111.373,621.66504 -132.173,655.32404C-136.16,661.77563 -141.0941,667.633 -146.758,672.67603" transform="matrix(0.512579, 0, 0, 0.525756, 529.883, -104.12)" stroke="#000" stroke-linecap="round" stroke-width="12.5" fill="#7f3f00" id="imagebot_66"/>
  <path id="imagebot_64" stroke="#000" stroke-width="8.1474" fill="#5e6a56" d="M281.64999,555.15002L276.3735,804.67004C297.50848,895.39905 512.85352,862.59406 519.09351,808.41284L519.09351,550.16284L290.44351,552.65802" transform="translate(-3.8147) matrix(0.767702, 0, 0, 0.78227, 41.7034, 98.8531)"/>
  <path id="imagebot_65" stroke="#000" stroke-width="9.9771" fill="#3f432a" d="M544.58002,872.46002S534.33704,823.99902 470.57602,829.68402C384.80502,837.33142 382.35001,886.17004 382.35001,886.17004C377.32263,901.29901 548.86005,892.26434 544.58002,872.46002z" transform="matrix(0.767702, 0, 0, 0.78227, 34.074, 98.8531)"/>
  <path id="imagebot_62" stroke="#000" stroke-width="10.571" fill="#c66366" d="M441.84,645.72998C448.198,662.58197 569.76001,618.15399 563.67999,598.78601C506.31201,351.716 450.29001,373.38599 428.87,378.186C396.83499,402.90601 406.27802,488.186 441.83801,645.73602L441.84,645.72998z" transform="matrix(0.767702, 0, 0, 0.78227, 34.074, 98.8531)"/>
  <path id="imagebot_63" stroke="#000" stroke-width="7.9484" fill="#5e6a56" d="M166.052,536.971 L159.22,739.829 C178.889,798.669 342.616,788.067 343.752,761.461 L348.347,540.72 L157.444,545.574"/>
  <path transform="matrix(0.767702, 0, 0, 0.78227, 93.1141, 102.071)" id="imagebot_61" stroke-linejoin="round" d="M275.35501,335.19601C274.69699,335.186 274.03601,335.20599 273.379,335.211C273.00601,335.19199 272.633,335.168 272.26001,335.15302C271.685,335.13 271.09799,335.125 270.521,335.112L270.51099,335.26801C226.383,336.81299 184.765,364.29401 156.401,399.56C95.613,474.64401 70.404,574.841 65.694,671.44098C66.533,696.26703 61.19,725.91998 70.29,747.646C104.908,771.77197 167.00301,777.15198 209.25,783.60199C220.48801,784.41199 238.35899,784.98798 257.76199,785.56598L257.76199,785.62799C259.79901,785.66498 261.737,785.70398 263.745,785.73999C263.94299,785.73999 264.13699,785.75 264.33499,785.75403C283.745,786.099 301.62399,786.37402 312.89301,786.09998C355.452,781.66699 417.77301,779.25098 453.702,756.80298C464.01901,735.53802 460.362,705.672 462.603,680.91803C463.366,584.216 443.85901,482.95801 387.401,405.08801C361.06799,368.51901 321.061,339.09601 277.08099,335.453L277.091,335.23599C276.51501,335.22198 275.92899,335.19901 275.353,335.19501L275.35501,335.19601z" fill-rule="evenodd" stroke="#000" stroke-linecap="round" stroke-width="12.723" fill="#c66366"/>
  <path id="imagebot_60" stroke="#000" stroke-width="11" fill="#3f432a" d="M186.72,888.39001S193.916,827.63397 285.42801,831.742C408.52802,837.26898 419.448,897.90503 419.448,897.90503C428.89499,916.48999 183.64799,913.22302 186.728,888.39001L186.72,888.39001z" transform="rotate(359, 255.402, 768.58) matrix(0.767702, 0, 0, 0.78227, 22.6299, 87.409)"/>
  <rect id="imagebot_59" stroke-linejoin="round" fill-rule="evenodd" rx="268.07" ry="186.29" height="372.59" width="426.7" stroke="#000" stroke-linecap="round" y="55.657" x="137.05" stroke-width="12.101" fill="#efd6bd" transform="matrix(0.767702, 0, 0, 0.78227, 34.074, 98.8531)"/>
  <path id="imagebot_58" stroke-linejoin="round" d="M-213.36,635.21002C-229.37199,625.66504 -233.54401,604.18903 -224.157,588.53705C-213.15401,570.19104 -188.50101,565.42804 -170.55499,576.25299C-149.618,588.883 -144.19901,617.07001 -156.629,637.565C-171.06799,661.37305 -203.175,667.51501 -226.495,653.30005C-253.47301,636.85504 -260.41199,600.41302 -244.217,573.97302C-225.554,543.50403 -184.33099,535.68903 -154.453,554.07404C-120.148,575.18304 -111.373,621.66504 -132.173,655.32404C-136.16,661.77563 -141.0941,667.633 -146.758,672.67603" transform="matrix(0.512579, 0, 0, 0.525756, 497.152, -148.034)" stroke="#000" stroke-linecap="round" stroke-width="7.5" fill="#7f3f00"/>
  <path id="imagebot_57" stroke-linejoin="round" d="M-213.36,635.21002C-229.37199,625.66504 -233.54401,604.18903 -224.157,588.53705C-213.15401,570.19104 -188.50101,565.42804 -170.55499,576.25299C-149.618,588.883 -144.19901,617.07001 -156.629,637.565C-171.06799,661.37305 -203.175,667.51501 -226.495,653.30005C-253.47301,636.85504 -260.41199,600.41302 -244.217,573.97302C-225.554,543.50403 -184.33099,535.68903 -154.453,554.07404C-120.148,575.18304 -111.373,621.66504 -132.173,655.32404C-136.16,661.77563 -141.0941,667.633 -146.758,672.67603" transform="matrix(-0.512579, 0, 0, 0.525756, 253.068, -172.642)" stroke="#000" stroke-linecap="round" stroke-width="13.435" fill="#7f3f00"/>
  <path id="imagebot_56" stroke-linejoin="round" d="M-219.097,641.20398C-233.255,632.76398 -236.944,613.77399 -228.644,599.93402C-218.91499,583.71198 -197.11501,579.5 -181.24699,589.07202C-162.733,600.23999 -157.942,625.164 -168.933,643.28601C-181.7,664.33899 -210.091,669.77002 -230.711,657.20001C-254.56599,642.659 -260.702,610.435 -246.382,587.05603C-229.879,560.11401 -193.42799,553.203 -167.009,569.46002C-136.675,588.12598 -128.91499,629.22699 -147.308,658.98999C-150.83299,664.69501 -155.196,669.87402 -160.20399,674.33301" stroke="#000" stroke-linecap="round" stroke-width="12" fill="#7f3f00" transform="matrix(0.512579, 0, 0, 0.525756, 375.327, -174.316)"/>
  <path id="imagebot_55" fill-rule="evenodd" transform="matrix(1.05782, 0, 0, 1.30819, 671.644, -57.3977)" d="M-232.94,259.59C-232.94,265.16479 -237.6331,269.68399 -243.422,269.68399C-249.2112,269.68399 -253.90401,265.16479 -253.90401,259.59S-249.21091,249.496 -243.422,249.496C-237.6328,249.496 -232.94,254.0152 -232.94,259.59z"/>
  <path id="imagebot_54" fill-rule="evenodd" transform="matrix(1.05782, 0, 0, 1.30819, 561.096, -53.8778)" d="M-232.94,259.59C-232.94,265.16479 -237.6331,269.68399 -243.422,269.68399C-249.2112,269.68399 -253.90401,265.16479 -253.90401,259.59S-249.21091,249.496 -243.422,249.496C-237.6328,249.496 -232.94,254.0152 -232.94,259.59z"/>
  <path id="imagebot_53" stroke-linejoin="round" d="M-423.59,741.67999L-352.16,741.03961" stroke="#000" stroke-linecap="round" stroke-width="12.649" fill="none" transform="matrix(0.767702, 0, 0, 0.78227, 607.186, -302.842)"/>
  <path id="imagebot_52" stroke-linejoin="round" d="M-280.72,737.67999L-209.28999,737.03961" stroke="#000" stroke-linecap="round" stroke-width="12.649" fill="none" transform="matrix(0.767702, 0, 0, 0.78227, 607.186, -302.842)"/>
  <path id="imagebot_51" stroke-linejoin="round" d="M-5164.5,-923.97998C-5173.64893,-1051.28003 -5063.68994,-1152.68994 -4941.68018,-1160.81995C-4773.58984,-1172.02197 -4640.0498,-1026.64001 -4630.08984,-865.34998C-4624.29004,-771.35901 -4657.60986,-677.84998 -4717.86377,-605.97998" transform="matrix(-0.0385002, -0.0448185, 0.0392526, -0.030428, 23.7515, 57.8684)" stroke="#000" stroke-linecap="round" stroke-width="139.79" fill="none"/>
  <path stroke-linejoin="round" d="M-232.33501,599.80402C-242.217,593.60602 -244.791,579.66101 -238.998,569.49799C-232.20799,557.586 -216.995,554.49298 -205.92,561.52197C-192.99899,569.72302 -189.655,588.02502 -197.326,601.33301C-206.237,616.79303 -226.05,620.78101 -240.44099,611.55103C-257.09,600.87201 -261.37201,577.21002 -251.37801,560.04102C-239.86,540.25702 -214.42101,535.18201 -195.983,547.12C-174.813,560.82703 -169.39799,591.00897 -182.23399,612.86499C-184.694,617.05402 -187.739,620.85699 -191.235,624.13202" stroke="#000" stroke-linecap="round" stroke-width="4.5" fill="#7f3f00" id="imagebot_49" transform="matrix(0.512579, 0, 0, 0.525756, 279.585, -107.708)"/>
  <path stroke-linejoin="round" d="M-241.752,627.53003C-248.85001,621.52301 -250.7,608.00598 -246.539,598.15399C-241.661,586.60699 -230.733,583.60999 -222.77699,590.42297C-213.496,598.37201 -211.09399,616.11298 -216.604,629.013C-223.005,643.99701 -237.23801,647.86298 -247.575,638.91602C-259.534,628.56598 -262.60999,605.62903 -255.431,588.98798C-247.158,569.81097 -228.884,564.89203 -215.63901,576.46301C-200.43201,589.74902 -196.54201,619.005 -205.763,640.19C-207.53,644.25098 -209.718,647.93701 -212.228,651.112" stroke="#000" stroke-linecap="round" stroke-width="7" fill="#7f3f00" id="imagebot_48" transform="rotate(333.148, 141.485, 249.408) matrix(0.514564, -0.00391981, -0.0039457, 0.523758, 262.25, -69.4016)"/>
  <path stroke-linejoin="round" d="M-232.33501,599.80402C-242.217,593.60602 -244.791,579.66101 -238.998,569.49799C-232.20799,557.586 -216.995,554.49298 -205.92,561.52197C-192.99899,569.72302 -189.655,588.02502 -197.326,601.33301C-206.237,616.79303 -226.05,620.78101 -240.44099,611.55103C-257.09,600.87201 -261.37201,577.21002 -251.37801,560.04102C-239.86,540.25702 -214.42101,535.18201 -195.983,547.12C-174.813,560.82703 -169.39799,591.00897 -182.23399,612.86499C-184.694,617.05402 -187.739,620.85699 -191.235,624.13202" stroke="#000" stroke-linecap="round" stroke-width="4.5" fill="#7f3f00" transform="matrix(0.512579, 0, 0, 0.525756, 266.465, -82.8804)" id="imagebot_47"/>
  <path transform="matrix(0.767702, 0, 0, 0.78227, 93.1141, 102.071)" fill="#000000" stroke="#000" stroke-width="11" stroke-dasharray="null" stroke-linejoin="round" stroke-linecap="round" stroke-opacity="null" d="M350.71899,338L236.715,304.21899C241.952,335.401 252.86301,358.58301 267.74701,364.76599C296.539,378.84399 326.466,355.922 350.71899,338z" id="imagebot_50"/>
  <path stroke-linejoin="round" d="M-232.33501,599.80402C-242.217,593.60602 -244.791,579.66101 -238.998,569.49799C-232.20799,557.586 -216.995,554.49298 -205.92,561.52197C-192.99899,569.72302 -189.655,588.02502 -197.326,601.33301C-206.237,616.79303 -226.05,620.78101 -240.44099,611.55103C-257.09,600.87201 -261.37201,577.21002 -251.37801,560.04102C-239.86,540.25702 -214.42101,535.18201 -195.983,547.12C-174.813,560.82703 -169.39799,591.00897 -182.23399,612.86499C-184.694,617.05402 -187.739,620.85699 -191.235,624.13202" stroke="#000" stroke-linecap="round" stroke-width="4.5" fill="#7f3f00" transform="matrix(0.512579, 0, 0, 0.525756, 296.453, -86.6993)" id="imagebot_46"/>
  <path stroke-linejoin="round" d="M-232.33501,599.80402C-242.217,593.60602 -244.791,579.66101 -238.998,569.49799C-232.20799,557.586 -216.995,554.49298 -205.92,561.52197C-192.99899,569.72302 -189.655,588.02502 -197.326,601.33301C-206.237,616.79303 -226.05,620.78101 -240.44099,611.55103C-257.09,600.87201 -261.37201,577.21002 -251.37801,560.04102C-239.86,540.25702 -214.42101,535.18201 -195.983,547.12C-174.813,560.82703 -169.39799,591.00897 -182.23399,612.86499C-184.694,617.05402 -187.739,620.85699 -191.235,624.13202" stroke="#000" stroke-linecap="round" stroke-width="10" fill="#7f3f00" transform="matrix(0.512579, 0, 0, 0.525756, 317.071, -107.708)" id="imagebot_45"/>
  <path stroke-linejoin="round" d="M-232.33501,599.80402C-242.217,593.60602 -244.791,579.66101 -238.998,569.49799C-232.20799,557.586 -216.995,554.49298 -205.92,561.52197C-192.99899,569.72302 -189.655,588.02502 -197.326,601.33301C-206.237,616.79303 -226.05,620.78101 -240.44099,611.55103C-257.09,600.87201 -261.37201,577.21002 -251.37801,560.04102C-239.86,540.25702 -214.42101,535.18201 -195.983,547.12C-174.813,560.82703 -169.39799,591.00897 -182.23399,612.86499C-184.694,617.05402 -187.739,620.85699 -191.235,624.13202" stroke="#000" stroke-linecap="round" stroke-width="6.5" fill="#7f3f00" transform="matrix(0.512579, 0, 0, 0.525756, 307.699, -134.446)" id="imagebot_44"/>
  <path stroke-linejoin="round" d="M-232.33501,599.80402C-242.217,593.60602 -244.791,579.66101 -238.998,569.49799C-232.20799,557.586 -216.995,554.49298 -205.92,561.52197C-192.99899,569.72302 -189.655,588.02502 -197.326,601.33301C-206.237,616.79303 -226.05,620.78101 -240.44099,611.55103C-257.09,600.87201 -261.37201,577.21002 -251.37801,560.04102C-239.86,540.25702 -214.42101,535.18201 -195.983,547.12C-174.813,560.82703 -169.39799,591.00897 -182.23399,612.86499C-184.694,617.05402 -187.739,620.85699 -191.235,624.13202" stroke="#000" stroke-linecap="round" stroke-width="6.5" fill="#7f3f00" transform="matrix(0.512579, 0, 0, 0.525756, 343.31, -149.725)" id="imagebot_43"/>
  <path stroke-linejoin="round" d="M-232.33501,599.80402C-242.217,593.60602 -244.791,579.66101 -238.998,569.49799C-232.20799,557.586 -216.995,554.49298 -205.92,561.52197C-192.99899,569.72302 -189.655,588.02502 -197.326,601.33301C-206.237,616.79303 -226.05,620.78101 -240.44099,611.55103C-257.09,600.87201 -261.37201,577.21002 -251.37801,560.04102C-239.86,540.25702 -214.42101,535.18201 -195.983,547.12C-174.813,560.82703 -169.39799,591.00897 -182.23399,612.86499C-184.694,617.05402 -187.739,620.85699 -191.235,624.13202" stroke="#000" stroke-linecap="round" stroke-width="8" fill="#7f3f00" transform="matrix(0.512579, 0, 0, 0.525756, 345.184, -121.077)" id="imagebot_42"/>
  <path stroke-linejoin="round" d="M-221.30299,619.02698C-234.74899,611.01202 -238.252,592.97803 -230.37,579.83502C-221.13,564.42999 -200.429,560.42999 -185.35899,569.52002C-167.778,580.12598 -163.22701,603.79498 -173.66499,621.005C-185.78999,640.99701 -212.75101,646.15503 -232.33299,634.21802C-254.987,620.409 -260.814,589.80798 -247.214,567.60498C-231.543,542.02002 -196.927,535.45697 -171.838,550.896C-143.03101,568.62097 -135.66299,607.65302 -153.129,635.91803C-156.47701,641.33502 -160.62,646.25403 -165.37601,650.48798" stroke="#000" stroke-linecap="round" stroke-width="13.435" fill="#7f3f00" id="imagebot_41" transform="matrix(0.512579, 0, 0, 0.525756, 364.827, -128.162)"/>
  <path stroke-linejoin="round" d="M-241.752,627.53003C-248.85001,621.52301 -250.7,608.00598 -246.539,598.15399C-241.661,586.60699 -230.733,583.60999 -222.77699,590.42297C-213.496,598.37201 -211.09399,616.11298 -216.604,629.013C-223.005,643.99701 -237.23801,647.86298 -247.575,638.91602C-259.534,628.56598 -262.60999,605.62903 -255.431,588.98798C-247.158,569.81097 -228.884,564.89203 -215.63901,576.46301C-200.43201,589.74902 -196.54201,619.005 -205.763,640.19C-207.53,644.25098 -209.718,647.93701 -212.228,651.112" stroke="#000" stroke-linecap="round" stroke-width="5.5" fill="#7f3f00" transform="rotate(67.5262, 171.474, 249.408) matrix(0.520885, 0.00343585, 0.00345855, 0.517395, 289.199, -63.8478)" id="imagebot_40"/>
  <path stroke-linejoin="round" d="M-221.30299,619.02698C-234.74899,611.01202 -238.252,592.97803 -230.37,579.83502C-221.13,564.42999 -200.429,560.42999 -185.35899,569.52002C-167.778,580.12598 -163.22701,603.79498 -173.66499,621.005C-185.78999,640.99701 -212.75101,646.15503 -232.33299,634.21802C-254.987,620.409 -260.814,589.80798 -247.214,567.60498C-231.543,542.02002 -196.927,535.45697 -171.838,550.896C-143.03101,568.62097 -135.66299,607.65302 -153.129,635.91803C-156.47701,641.33502 -160.62,646.25403 -165.37601,650.48798" stroke="#000" stroke-linecap="round" stroke-width="13.435" fill="#7f3f00" transform="matrix(0.512579, 0, 0, 0.525756, 402.444, -136.767)" id="imagebot_18"/>
  <path id="imagebot_17" stroke-linejoin="round" d="M-213.36,635.21002C-229.37199,625.66504 -233.54401,604.18903 -224.157,588.53705C-213.15401,570.19104 -188.50101,565.42804 -170.55499,576.25299C-149.618,588.883 -144.19901,617.07001 -156.629,637.565C-171.06799,661.37305 -203.175,667.51501 -226.495,653.30005C-253.47301,636.85504 -260.41199,600.41302 -244.217,573.97302C-225.554,543.50403 -184.33099,535.68903 -154.453,554.07404C-120.148,575.18304 -111.373,621.66504 -132.173,655.32404C-136.16,661.77563 -141.0941,667.633 -146.758,672.67603" transform="matrix(0.767702, 0, 0, -0.78227, 497.558, 680.009)" stroke="#000" stroke-linecap="round" stroke-width="9" fill="#7f3f00"/>
  <path transform="matrix(0.863821, 0, 0, 0.858304, 60.2601, 109)" fill="#ffffff" stroke="#000000" stroke-width="3" stroke-dasharray="null" stroke-linejoin="round" stroke-linecap="round" stroke-opacity="null" id="imagebot_4" d="M334.059,625.953 C310.293,625.274 291.565,605.424 292.244,581.658 C292.924,557.893 312.755,539.164 336.521,539.844 C360.287,540.523 380.118,521.776 380.798,498.01 C381.478,474.245 362.749,454.413 338.983,453.734 C291.452,452.375 251.77,489.85 250.411,537.381 C249.052,584.912 286.527,624.594 334.059,625.953 z M334.905,596.347 C342.336,596.559 348.535,590.705 348.748,583.274 C348.96,575.843 343.105,569.644 335.675,569.432 C328.244,569.219 322.045,575.074 321.832,582.504 C321.62,589.935 327.475,596.134 334.905,596.347 z M337.368,510.237 C329.941,510.025 324.083,503.821 324.295,496.395 C324.507,488.968 330.71,483.109 338.137,483.322 C345.564,483.534 351.422,489.738 351.21,497.164 C350.998,504.591 344.794,510.449 337.368,510.237 z M252.344,537.382 C253.702,489.886 293.306,452.484 340.802,453.842 C388.298,455.2 406.7,495.804 408.342,544.3 C398.984,590.796 385.38,619.198 335.884,625.84 C288.388,624.481 250.986,584.877 252.344,537.382 z"/>
  <path transform="matrix(0.863821, 0, 0, 0.858304, 60.2601, 109)" id="imagebot_3" fill="#ffffff" stroke="#000000" stroke-width="3" stroke-dasharray="null" stroke-linejoin="round" stroke-linecap="round" stroke-opacity="null" d="M334.059,625.953 C310.293,625.274 291.565,605.424 292.244,581.658 C292.924,557.893 312.755,539.164 336.521,539.844 C360.287,540.523 380.118,521.776 380.798,498.01 C381.478,474.245 362.749,454.413 338.983,453.734 C291.452,452.375 251.77,489.85 250.411,537.381 C249.052,584.912 286.527,624.594 334.059,625.953 z M334.905,596.347 C342.336,596.559 348.535,590.705 348.748,583.274 C348.96,575.843 343.105,569.644 335.675,569.432 C328.244,569.219 322.045,575.074 321.832,582.504 C321.62,589.935 327.475,596.134 334.905,596.347 z M337.368,510.237 C329.941,510.025 324.083,503.821 324.295,496.395 C324.507,488.968 330.71,483.109 338.137,483.322 C345.564,483.534 351.422,489.738 351.21,497.164 C350.998,504.591 344.794,510.449 337.368,510.237 z M252.344,537.382 C253.702,489.886 293.306,452.484 340.802,453.842 C388.298,455.2 414.7,498.804 416.342,547.3 C406.984,593.796 389.38,619.198 339.884,625.84 C292.388,624.481 250.986,584.877 252.344,537.382 z"/>
  <path transform="matrix(0.863821, 0, 0, 0.858304, 60.2601, 109)" id="imagebot_2" fill="#000000" stroke="#000000" stroke-width="3" stroke-dasharray="null" stroke-linejoin="round" stroke-linecap="round" stroke-opacity="null" d="M339.296,451.257 C364.775,451.936 384.853,471.786 384.125,495.552 C383.396,519.317 362.136,538.046 336.657,537.366 C311.178,536.687 289.918,555.434 289.189,579.2 C288.46,602.965 308.539,622.797 334.018,623.476 C384.974,624.835 411.516,587.36 412.973,539.829 C414.43,492.298 390.254,452.616 339.296,451.257 z M338.389,480.863 C330.423,480.651 323.777,486.505 323.549,493.936 C323.322,501.367 329.598,507.566 337.564,507.778 C345.53,507.991 352.176,502.136 352.405,494.706 C352.632,487.275 346.355,481.076 338.389,480.863 z M335.749,566.973 C343.711,567.185 349.991,573.389 349.764,580.815 C349.537,588.242 342.887,594.101 334.924,593.888 C326.962,593.676 320.682,587.472 320.909,580.046 C321.137,572.619 327.788,566.761 335.749,566.973 z M412.9,546.828 C411.444,594.324 382.986,624.726 332.067,623.368 C281.149,622.01 235.484,587.406 236.228,536.91 C244.603,472.414 284.277,454.012 337.34,451.37 C388.259,452.729 414.356,499.333 412.9,546.828 z"/>
  <path transform="rotate(28, 82.086, 304.59) matrix(0.834387, -0.223573, 0.222145, 0.829058, -17.8835, 129.283)" stroke-linejoin="round" d="M10.8643,211.613 C-12.7763,139.576 70.7965,214.447 83.7909,196.681 S117.196,221.423 111.845,240.609 S86.2056,273.939 67.5313,275.201 S35.2463,253.5 10.8643,211.613 z" fill-rule="evenodd" stroke="#000" stroke-linecap="round" stroke-width="8" fill="#efd6bd" id="imagebot_7"/>
  <path stroke="#000" stroke-width="10.571" fill="#c66366" d="M-51.1013,303.29199C-57.4972,296.35699 53.3753,225.841 63.8386,243.237C210.707,450.03201 157.334,477.58899 139.536,490.43701C99.7885,498.01901 42.2248,434.392 -52.1071,303.289L-51.1013,303.29199z" id="imagebot_6" transform="rotate(12.0578, 140.368, 392.494) matrix(0.742927, -0.195986, 0.205177, 0.75423, 23.8573, 127.562)"/>
 </g>
 <metadata>image/svg+xmlOpenclipartA cartoon person2013-09-30T09:50:04A cartoon person standing in three-quarters view.https://openclipart.org/detail/184026/a-cartoon-person-by-anarres-184026anarrescharactercomicperson</metadata>
</svg>